<?xml version="1.0" encoding="utf-8"?>
<!-- Generator: Adobe Illustrator 28.1.0, SVG Export Plug-In . SVG Version: 6.00 Build 0)  -->
<svg version="1.1" id="Vrstva_1" xmlns="http://www.w3.org/2000/svg" xmlns:xlink="http://www.w3.org/1999/xlink" x="0px" y="0px"
	 viewBox="0 0 283.46 57.54" style="enable-background:new 0 0 283.46 57.54;" xml:space="preserve">
<style type="text/css">
	.st0{fill:#FAF5FF;}
	.st1{fill:url(#SVGID_1_);}
	.st2{fill:url(#SVGID_00000139260516963955810600000014911674178435856815_);}
	.st3{fill:url(#SVGID_00000178200075091933557310000011579298042841608374_);}
	.st4{fill:url(#SVGID_00000011020652854085441440000014764034719962235822_);}
	.st5{fill:#FFFFFF;}
	.st6{fill:url(#SVGID_00000099644357903057855000000010704967447734902160_);}
	.st7{fill:url(#SVGID_00000176726118552274106740000005125963071643600823_);}
	.st8{fill:url(#SVGID_00000172403933689994963970000016909656253057200519_);}
	.st9{fill:url(#SVGID_00000138570571345299250800000013636989675938229168_);}
</style>
<g>
	<path class="st0" d="M-7047.95,627.83v33.48h39.47v9.33h-50.91v-42.81H-7047.95z"/>
	<path class="st0" d="M-6951.89,627.83v9.33h-39.47v8.21h38.11v6.71h-38.11v9.23h39.47v9.33h-50.91v-42.81H-6951.89z"/>
	<path class="st0" d="M-6938.23,627.83l37.82,29.01v-29.01h11.44v42.81h-7.91l-37.82-29.01v29.01h-11.44v-42.81H-6938.23z"/>
	<path class="st0" d="M-6845.11,627.83c12.1,0,21.4,9.32,21.4,21.4s-9.3,21.4-21.4,21.4h-38.04v-42.81H-6845.11z M-6871.72,661.3
		h24.5c6.82,0,12.07-5.26,12.07-12.07c0-6.82-5.25-12.07-12.07-12.07h-24.5V661.3z"/>
	<path class="st0" d="M-6806.47,627.83v33.48h39.47v9.33h-50.91v-42.81H-6806.47z"/>
	<path class="st0" d="M-6723.8,627.83l33.12,42.81h-12.74l-5.6-7.52h-33.9l-5.6,7.52h-12.74l33.12-42.81H-6723.8z M-6736.96,655.7
		h21.98l-10.99-14.73L-6736.96,655.7z"/>
	<path class="st0" d="M-6676.97,627.83l37.82,29.01v-29.01h11.44v42.81h-7.91l-37.82-29.01v29.01h-11.44v-42.81H-6676.97z"/>
	<path class="st0" d="M-6583.86,627.83c12.1,0,21.4,9.32,21.4,21.4s-9.3,21.4-21.4,21.4h-38.04v-42.81H-6583.86z M-6610.46,661.3
		h24.5c6.82,0,12.07-5.26,12.07-12.07c0-6.82-5.25-12.07-12.07-12.07h-24.5V661.3z"/>
	<path class="st0" d="M-6547.08,666.65c0,2.25-1.73,3.98-3.98,3.98s-3.98-1.74-3.98-3.98s1.73-3.98,3.98-3.98
		S-6547.08,664.4-6547.08,666.65z"/>
	<path class="st0" d="M-6531.13,627.83v42.81h-6.95v-42.81H-6531.13z"/>
	<path class="st0" d="M-6485.18,627.83c12.1,0,21.4,9.32,21.4,21.4s-9.3,21.4-21.4,21.4h-17.51c-12.1,0-21.4-9.32-21.4-21.4
		s9.3-21.4,21.4-21.4H-6485.18z M-6517.15,649.23c0,8.88,6.84,15.73,15.73,15.73h14.96c8.89,0,15.73-6.85,15.73-15.73
		s-6.84-15.73-15.73-15.73h-14.96C-6510.31,633.5-6517.15,640.35-6517.15,649.23z"/>
</g>
<g>
	
		<linearGradient id="SVGID_1_" gradientUnits="userSpaceOnUse" x1="-3728.4482" y1="-8213.9551" x2="-3584.6914" y2="-8213.9551" gradientTransform="matrix(-0.7071 -0.7071 0.7071 -0.7071 -3891.0171 -7744.3511)">
		<stop  offset="0.0176" style="stop-color:#FFFC00"/>
		<stop  offset="0.3522" style="stop-color:#F1FF00"/>
		<stop  offset="0.6658" style="stop-color:#F1FF36"/>
		<stop  offset="1" style="stop-color:#C2F700"/>
	</linearGradient>
	<path class="st1" d="M-7095.14,691.78l4.18-4.18c0.44-0.44,0.44-1.14,0-1.58l-28.34-28.34c-0.21-0.21-0.33-0.49-0.33-0.79v-38.65
		c0-0.3-0.12-0.58-0.33-0.79l-5.91-5.91c-0.7-0.7-1.91-0.21-1.91,0.79v47.93c0,0.3,0.12,0.58,0.33,0.79l30.72,30.72
		C-7096.28,692.22-7095.57,692.22-7095.14,691.78z"/>
	
		<linearGradient id="SVGID_00000014622961112690956280000016155388158519609272_" gradientUnits="userSpaceOnUse" x1="-3728.5762" y1="-8224.791" x2="-3584.1216" y2="-8224.791" gradientTransform="matrix(-0.7071 -0.7071 0.7071 -0.7071 -3891.0171 -7744.3511)">
		<stop  offset="0.0176" style="stop-color:#FFFC00"/>
		<stop  offset="0.3522" style="stop-color:#F1FF00"/>
		<stop  offset="0.6658" style="stop-color:#F1FF36"/>
		<stop  offset="1" style="stop-color:#C2F700"/>
	</linearGradient>
	<path style="fill:url(#SVGID_00000014622961112690956280000016155388158519609272_);" d="M-7111.04,706.53l4.18-4.18
		c0.44-0.44,0.44-1.14,0-1.58l-31.66-31.66c-0.21-0.21-0.33-0.49-0.33-0.79v-69.3c0-0.3-0.12-0.58-0.33-0.79l-5.91-5.91
		c-0.7-0.7-1.91-0.21-1.91,0.79v78.58c0,0.3,0.12,0.58,0.33,0.79l34.04,34.04C-7112.18,706.96-7111.48,706.96-7111.04,706.53z"/>
	
		<linearGradient id="SVGID_00000054976799229607312520000002694088802810370224_" gradientUnits="userSpaceOnUse" x1="-3729.0198" y1="-8272.8623" x2="-3582.4158" y2="-8272.8623" gradientTransform="matrix(-0.7071 -0.7071 0.7071 -0.7071 -3891.0171 -7744.3511)">
		<stop  offset="0.0176" style="stop-color:#FFFC00"/>
		<stop  offset="0.3522" style="stop-color:#F1FF00"/>
		<stop  offset="0.6658" style="stop-color:#F1FF36"/>
		<stop  offset="1" style="stop-color:#C2F700"/>
	</linearGradient>
	<path style="fill:url(#SVGID_00000054976799229607312520000002694088802810370224_);" d="M-7186.78,657.69l-28.34,28.34
		c-0.44,0.44-0.44,1.14,0,1.58l4.18,4.18c0.44,0.44,1.14,0.44,1.58,0l30.72-30.72c0.21-0.21,0.33-0.49,0.33-0.79v-48.32
		c0-0.99-1.2-1.49-1.91-0.79l-5.91,5.91c-0.21,0.21-0.33,0.49-0.33,0.79v39.05C-7186.45,657.19-7186.57,657.48-7186.78,657.69z"/>
	
		<linearGradient id="SVGID_00000119796550898054706460000013969862026532845212_" gradientUnits="userSpaceOnUse" x1="-3729.0198" y1="-8258.8613" x2="-3582.4158" y2="-8258.8613" gradientTransform="matrix(-0.7071 -0.7071 0.7071 -0.7071 -3891.0171 -7744.3511)">
		<stop  offset="0.0176" style="stop-color:#FFFC00"/>
		<stop  offset="0.3522" style="stop-color:#F1FF00"/>
		<stop  offset="0.6658" style="stop-color:#F1FF36"/>
		<stop  offset="1" style="stop-color:#C2F700"/>
	</linearGradient>
	<path style="fill:url(#SVGID_00000119796550898054706460000013969862026532845212_);" d="M-7199.22,702.35l4.18,4.18
		c0.44,0.44,1.14,0.44,1.58,0l34.04-34.04c0.21-0.21,0.33-0.49,0.33-0.79v-78.97c0-0.99-1.2-1.49-1.91-0.79l-5.91,5.91
		c-0.21,0.21-0.33,0.49-0.33,0.79v69.7c0,0.3-0.12,0.58-0.33,0.79l-31.66,31.66C-7199.65,701.21-7199.65,701.91-7199.22,702.35z"/>
</g>
<g>
	<path class="st5" d="M73.88,23.58V34.5h12.87v3.04h-16.6V23.58H73.88z"/>
	<path class="st5" d="M105.19,23.58v3.04H92.33v2.68h12.42v2.19H92.33v3.01h12.87v3.04H88.6V23.58H105.19z"/>
	<path class="st5" d="M109.64,23.58l12.33,9.46v-9.46h3.73v13.95h-2.58l-12.33-9.46v9.46h-3.73V23.58H109.64z"/>
	<path class="st5" d="M140,23.58c3.94,0,6.98,3.04,6.98,6.98s-3.03,6.98-6.98,6.98h-12.4V23.58H140z M131.33,34.5h7.99
		c2.22,0,3.94-1.71,3.94-3.94c0-2.22-1.71-3.94-3.94-3.94h-7.99V34.5z"/>
	<path class="st5" d="M152.59,23.58V34.5h12.87v3.04h-16.6V23.58H152.59z"/>
	<path class="st5" d="M179.54,23.58l10.8,13.95h-4.15l-1.82-2.45h-11.05l-1.82,2.45h-4.15l10.8-13.95H179.54z M175.25,32.67h7.17
		l-3.58-4.8L175.25,32.67z"/>
	<path class="st5" d="M194.81,23.58l12.33,9.46v-9.46h3.73v13.95h-2.58l-12.33-9.46v9.46h-3.73V23.58H194.81z"/>
	<path class="st5" d="M225.16,23.58c3.94,0,6.98,3.04,6.98,6.98s-3.03,6.98-6.98,6.98h-12.4V23.58H225.16z M216.49,34.5h7.99
		c2.22,0,3.94-1.71,3.94-3.94c0-2.22-1.71-3.94-3.94-3.94h-7.99V34.5z"/>
	<path class="st5" d="M237.15,36.24c0,0.73-0.56,1.3-1.3,1.3c-0.73,0-1.3-0.57-1.3-1.3s0.56-1.3,1.3-1.3
		C236.58,34.94,237.15,35.51,237.15,36.24z"/>
	<path class="st5" d="M242.35,23.58v13.95h-2.27V23.58H242.35z"/>
	<path class="st5" d="M257.33,23.58c3.94,0,6.98,3.04,6.98,6.98s-3.03,6.98-6.98,6.98h-5.71c-3.94,0-6.98-3.04-6.98-6.98
		s3.03-6.98,6.98-6.98H257.33z M246.91,30.56c0,2.89,2.23,5.13,5.13,5.13h4.88c2.9,0,5.13-2.23,5.13-5.13s-2.23-5.13-5.13-5.13
		h-4.88C249.14,25.43,246.91,27.67,246.91,30.56z"/>
</g>
<g>
	
		<linearGradient id="SVGID_00000173875101978784480080000016427970721582924962_" gradientUnits="userSpaceOnUse" x1="-8309.6357" y1="-2709.2505" x2="-8262.7744" y2="-2709.2505" gradientTransform="matrix(-0.7071 -0.7071 0.7071 -0.7071 -3891.0171 -7744.3511)">
		<stop  offset="0.0176" style="stop-color:#FFFC00"/>
		<stop  offset="0.3522" style="stop-color:#F1FF00"/>
		<stop  offset="0.6658" style="stop-color:#F1FF36"/>
		<stop  offset="1" style="stop-color:#C2F700"/>
	</linearGradient>
	<path style="fill:url(#SVGID_00000173875101978784480080000016427970721582924962_);" d="M58.5,44.43l1.36-1.36
		c0.14-0.14,0.14-0.37,0-0.51l-9.24-9.24c-0.07-0.07-0.11-0.16-0.11-0.26v-12.6c0-0.1-0.04-0.19-0.11-0.26l-1.93-1.93
		c-0.23-0.23-0.62-0.07-0.62,0.26v15.62c0,0.1,0.04,0.19,0.11,0.26l10.02,10.02C58.12,44.57,58.35,44.57,58.5,44.43z"/>
	
		<linearGradient id="SVGID_00000036931947763746889120000015010595265522711184_" gradientUnits="userSpaceOnUse" x1="-8309.6777" y1="-2712.7827" x2="-8262.5889" y2="-2712.7827" gradientTransform="matrix(-0.7071 -0.7071 0.7071 -0.7071 -3891.0171 -7744.3511)">
		<stop  offset="0.0176" style="stop-color:#FFFC00"/>
		<stop  offset="0.3522" style="stop-color:#F1FF00"/>
		<stop  offset="0.6658" style="stop-color:#F1FF36"/>
		<stop  offset="1" style="stop-color:#C2F700"/>
	</linearGradient>
	<path style="fill:url(#SVGID_00000036931947763746889120000015010595265522711184_);" d="M53.31,49.24l1.36-1.36
		c0.14-0.14,0.14-0.37,0-0.51L44.35,37.04c-0.07-0.07-0.11-0.16-0.11-0.26V14.2c0-0.1-0.04-0.19-0.11-0.26l-1.93-1.93
		c-0.23-0.23-0.62-0.07-0.62,0.26v25.61c0,0.1,0.04,0.19,0.11,0.26l11.1,11.1C52.94,49.38,53.17,49.38,53.31,49.24z"/>
	
		<linearGradient id="SVGID_00000061461778998526753740000005669000164607395257_" gradientUnits="userSpaceOnUse" x1="-8309.8223" y1="-2728.4526" x2="-8262.0322" y2="-2728.4526" gradientTransform="matrix(-0.7071 -0.7071 0.7071 -0.7071 -3891.0171 -7744.3511)">
		<stop  offset="0.0176" style="stop-color:#FFFC00"/>
		<stop  offset="0.3522" style="stop-color:#F1FF00"/>
		<stop  offset="0.6658" style="stop-color:#F1FF36"/>
		<stop  offset="1" style="stop-color:#C2F700"/>
	</linearGradient>
	<path style="fill:url(#SVGID_00000061461778998526753740000005669000164607395257_);" d="M28.62,33.32l-9.24,9.24
		c-0.14,0.14-0.14,0.37,0,0.51l1.36,1.36c0.14,0.14,0.37,0.14,0.51,0l10.02-10.02c0.07-0.07,0.11-0.16,0.11-0.26V18.41
		c0-0.32-0.39-0.49-0.62-0.26l-1.93,1.93c-0.07,0.07-0.11,0.16-0.11,0.26v12.73C28.73,33.16,28.69,33.25,28.62,33.32z"/>
	
		<linearGradient id="SVGID_00000064312043357315128500000017841253763512409013_" gradientUnits="userSpaceOnUse" x1="-8309.8223" y1="-2723.8889" x2="-8262.0322" y2="-2723.8889" gradientTransform="matrix(-0.7071 -0.7071 0.7071 -0.7071 -3891.0171 -7744.3511)">
		<stop  offset="0.0176" style="stop-color:#FFFC00"/>
		<stop  offset="0.3522" style="stop-color:#F1FF00"/>
		<stop  offset="0.6658" style="stop-color:#F1FF36"/>
		<stop  offset="1" style="stop-color:#C2F700"/>
	</linearGradient>
	<path style="fill:url(#SVGID_00000064312043357315128500000017841253763512409013_);" d="M24.57,47.88l1.36,1.36
		c0.14,0.14,0.37,0.14,0.51,0l11.1-11.1c0.07-0.07,0.11-0.16,0.11-0.26V12.14c0-0.32-0.39-0.49-0.62-0.26l-1.93,1.93
		c-0.07,0.07-0.11,0.16-0.11,0.26v22.72c0,0.1-0.04,0.19-0.11,0.26L24.57,47.36C24.43,47.51,24.43,47.74,24.57,47.88z"/>
</g>
</svg>
